<svg xmlns="http://www.w3.org/2000/svg" viewBox="0 0 64 64">
  <defs>
    <linearGradient id="night" x1="8" y1="6" x2="56" y2="58" gradientUnits="userSpaceOnUse">
      <stop stop-color="#123534"/>
      <stop offset="1" stop-color="#06090e"/>
    </linearGradient>
  </defs>
  <rect width="64" height="64" rx="18" fill="url(#night)"/>
  <rect x="2" y="2" width="60" height="60" rx="16" fill="none" stroke="#34d399" stroke-opacity=".55" stroke-width="2"/>
  <path d="M12 38c7-10 15-15 24-14 7 1 12 5 16 11-7-3-13-2-18 2-7 5-14 5-22 1Z" fill="#34d399"/>
  <path d="M13 45c7 3 14 3 20-1 6-4 11-4 17-1-5 7-12 10-21 10-7 0-12-3-16-8Z" fill="#10b981"/>
  <circle cx="43" cy="27" r="3" fill="#f8fafc"/>
  <circle cx="44" cy="27" r="1.2" fill="#071116"/>
  <path d="M12 38c3-4 6-7 10-10" fill="none" stroke="#a7f3d0" stroke-linecap="round" stroke-width="2"/>
</svg>
